<mxfile host="65bd71144e">
    <diagram id="Lq23wGT4ov-bBgoVnTW9" name="第 1 页">
        <mxGraphModel dx="612" dy="594" grid="1" gridSize="10" guides="1" tooltips="1" connect="1" arrows="1" fold="1" page="1" pageScale="1" pageWidth="827" pageHeight="1169" background="#ffffff" math="0" shadow="0">
            <root>
                <mxCell id="0"/>
                <mxCell id="1" parent="0"/>
                <mxCell id="2" value="HTTP/2" style="rounded=0;whiteSpace=wrap;html=1;fillColor=#1ba1e2;fontColor=#ffffff;strokeColor=#006EAF;fontSize=16;" vertex="1" parent="1">
                    <mxGeometry x="40" y="30" width="160" height="40" as="geometry"/>
                </mxCell>
                <mxCell id="3" value="TLS" style="rounded=0;whiteSpace=wrap;html=1;fillColor=#1ba1e2;fontColor=#ffffff;strokeColor=#006EAF;fontSize=16;" vertex="1" parent="1">
                    <mxGeometry x="40" y="80" width="160" height="40" as="geometry"/>
                </mxCell>
                <mxCell id="4" value="TCP" style="rounded=0;whiteSpace=wrap;html=1;fillColor=#1ba1e2;fontColor=#ffffff;strokeColor=#006EAF;fontSize=16;" vertex="1" parent="1">
                    <mxGeometry x="40" y="130" width="160" height="110" as="geometry"/>
                </mxCell>
                <mxCell id="5" value="HTTP/3" style="rounded=0;whiteSpace=wrap;html=1;fillColor=#1ba1e2;fontColor=#ffffff;strokeColor=#006EAF;fontSize=16;" vertex="1" parent="1">
                    <mxGeometry x="230" y="30" width="170" height="40" as="geometry"/>
                </mxCell>
                <mxCell id="6" value="" style="rounded=0;whiteSpace=wrap;html=1;fillColor=#1ba1e2;fontColor=#ffffff;strokeColor=#006EAF;fontSize=16;" vertex="1" parent="1">
                    <mxGeometry x="230" y="80" width="170" height="160" as="geometry"/>
                </mxCell>
                <mxCell id="7" value="多路数据流" style="rounded=0;whiteSpace=wrap;html=1;fillColor=#d80073;fontColor=#ffffff;strokeColor=#A50040;fontSize=16;" vertex="1" parent="1">
                    <mxGeometry x="240" y="113" width="150" height="27" as="geometry"/>
                </mxCell>
                <mxCell id="8" value="TLS" style="rounded=0;whiteSpace=wrap;html=1;fillColor=#d80073;fontColor=#ffffff;strokeColor=#A50040;fontSize=16;" vertex="1" parent="1">
                    <mxGeometry x="240" y="154" width="70" height="30" as="geometry"/>
                </mxCell>
                <mxCell id="9" value="有序交付" style="rounded=0;whiteSpace=wrap;html=1;fillColor=#d80073;fontColor=#ffffff;strokeColor=#A50040;fontSize=16;" vertex="1" parent="1">
                    <mxGeometry x="320" y="154" width="70" height="30" as="geometry"/>
                </mxCell>
                <mxCell id="11" value="快速握手" style="rounded=0;whiteSpace=wrap;html=1;fillColor=#d80073;fontColor=#ffffff;strokeColor=#A50040;fontSize=16;" vertex="1" parent="1">
                    <mxGeometry x="240" y="195" width="70" height="30" as="geometry"/>
                </mxCell>
                <mxCell id="12" value="可靠性" style="rounded=0;whiteSpace=wrap;html=1;fillColor=#d80073;fontColor=#ffffff;strokeColor=#A50040;fontSize=16;" vertex="1" parent="1">
                    <mxGeometry x="320" y="195" width="70" height="30" as="geometry"/>
                </mxCell>
                <mxCell id="13" value="QUIC" style="text;html=1;strokeColor=none;fillColor=none;align=center;verticalAlign=middle;whiteSpace=wrap;rounded=0;fontSize=16;fontColor=#FFFFFF;" vertex="1" parent="1">
                    <mxGeometry x="290" y="80" width="60" height="30" as="geometry"/>
                </mxCell>
                <mxCell id="14" value="IP" style="rounded=0;whiteSpace=wrap;html=1;fillColor=#1ba1e2;fontColor=#ffffff;strokeColor=#006EAF;fontSize=16;" vertex="1" parent="1">
                    <mxGeometry x="40" y="250" width="360" height="40" as="geometry"/>
                </mxCell>
            </root>
        </mxGraphModel>
    </diagram>
</mxfile>